<svg xmlns="http://www.w3.org/2000/svg" height="48px" viewBox="0 -960 960 960" width="48px" fill="#00A3FB"><path d="M480.36-357q44.64 0 82.93-21.91Q601.59-400.82 625-441q9-13 5.16-29.86-3.85-16.85-17.49-26-16.67-9.14-32.75-5.87Q563.83-499.46 556-484q-11 24-30.81 37-19.8 13-45 13Q454-434 434-448q-20-14-30-37-7.83-15-24.42-19-16.58-4-31.58 6-15 10.17-19 26.58-4 16.42 6 29.42 22 41 60.86 63 38.85 22 84.5 22ZM404.5-569.68q14.5-13.69 14.5-34 0-20.32-14.68-34.82-14.69-14.5-34.5-14.5Q350-653 336-638.32q-14 14.69-14 35 0 20.32 14.18 33.82 14.19 13.5 34 13.5 19.82 0 34.32-13.68Zm220 0q14.5-13.69 14.5-34 0-20.32-14.68-34.82-14.69-14.5-34.5-14.5Q570-653 556-638.32q-14 14.69-14 35 0 20.32 14.18 33.82 14.19 13.5 34 13.5 19.82 0 34.32-13.68ZM479-781q42-50 88.5-73T669-877q98.58 0 165.79 65.5T902-645q0 45-13 87t-46.5 92.5Q809-415 754.57-354.01 700.14-293.01 616-213l-74 69q-28 26-63 26t-62-26l-73-68q-84-79-138.37-140.91-54.37-61.92-87.5-112Q85-515 72-557.5T59-645q0-101 65.92-166.5Q190.85-877 289-877q56.36 0 104.68 24Q442-829 479-781Z"/></svg>